PathFileType	4	(X/Y/Z)	C:/Users/beibeiliu/ov580/test_trc/User3\out3_training_dense_right.trc
DataRate	CameraRate	NumFrames	NumMarkers	Units	OrigDataRate	OrigDataStartFrame	OrigNumFrames
120	120	17	19	mm	120	126	500
Frame#	Time	ThumbCMC			ThumbMCP			ThumbIP			ThumbTip			IndexMCP			IndexPIP			IndexTip			MiddleMCP			MiddlePIP			MiddleTip			RingMCP			RingPIP			RingTip			PinkyMCP			PinkyPIP			PinkyTip			BackHand1			BackHand2			BackHand3	
		X0	Y0	Z0	X1	Y1	Z1	X2	Y2	Z2	X3	Y3	Z3	X4	Y4	Z4	X5	Y5	Z5	X6	Y6	Z6	X7	Y7	Z7	X8	Y8	Z8	X9	Y9	Z9	X10	Y10	Z10	X11	Y11	Z11	X12	Y12	Z12	X13	Y13	Z13	X14	Y14	Z14	X15	Y15	Z15	X16	Y16	Z16	X17	Y17	Z17	X18	Y18	Z18	
125	1.04167	177.645	49.8921	41.988	160.752	79.895	23.3469	136.73	89.7939	9.90618	109.232	80.7446	4.71193	153.406	38.7235	-30.0436	139.672	53.8748	-54.6281	121.088	82.0808	-54.3748	125.18	47.0329	-23.942	117.28	78.974	-11.5432	133.094	62.2908	22.573	112.596	46.1693	-7.97669	105.51	67.6289	14.3687	126.904	58.8032	33.6956	103.497	36.5713	8.45195	101.676	58.6272	22.5791	120.578	47.3792	43.2674	137.969	-1.06793	18.8571	149.305	-6.51181	49.2856	173.702	14.8808	26.8937	
126	1.05	174.629	50.1263	42.0965	158.617	78.0252	26.4833	133.593	90.3676	10.2412	109.002	81.0034	8.28201	154.998	38.7454	-29.9298	137.992	48.0595	-56.374	120.36	64.9079	-68.9928	122.464	48.6361	-23.056	112.908	75.83	-7.85265	128.704	62.7535	24.5818	107.655	44.651	-5.06664	104.642	66.4313	14.2667	125.282	53.7344	39.3159	99.865	34.1013	10.0542	98.7461	55.5394	28.2017	120.821	45.3038	45.7467	141.07	-0.108668	18.7174	149.05	-9.66308	50.5122	173.868	12.7776	25.944	
127	1.05833	174.612	50.469	41.9045	154.389	75.2923	25.6634	131.653	88.9866	13.5273	105.324	80.1341	8.17542	150.442	36.4963	-29.5763	143.655	46.2052	-57.4588	128.374	56.2871	-77.5355	125.127	48.7583	-21.753	111.291	74.7144	-4.69538	129.941	61.7353	27.6132	110.96	44.4587	-4.38513	103.846	65.8835	19.5718	122.684	53.6347	40.9244	96.5768	37.0068	9.85826	101.486	55.5299	30.4624	120.003	42.5274	48.9506	137.715	-0.477303	19.7822	152.465	-7.09572	53.3236	171.088	12.7762	31.1133	
128	1.06667	175.978	52.7079	44.0179	154.984	76.9705	29.2888	128.719	87.8337	13.4256	100.088	79.7148	6.73633	153.417	37.3485	-30.6199	144.438	41.9401	-52.4515	133.656	48.6702	-75.5287	125.141	45.6272	-19.5146	112.103	76.2561	-6.26804	129.399	62.4345	28.2404	109.747	44.8806	-4.87578	103.563	66.1638	18.0237	125.422	54.4058	40.6498	95.7159	35.1288	11.2257	99.156	55.3622	26.5062	118.818	45.4869	44.7777	137.405	0.0558613	19.8229	150.02	-10.1687	51.265	171.415	13.2791	31.997	
129	1.075	171.487	50.8011	42.7657	152.413	76.6272	26.5724	127.847	89.7953	11.8539	100.358	80.5446	7.33379	151.344	34.9984	-31.9009	148.648	41.9169	-54.075	137.285	46.2798	-76.8387	124.005	47.4722	-22.9386	109.221	73.2821	-7.4201	129.618	64.3039	27.341	110.488	41.2463	-4.68147	100.551	63.4643	12.922	122.412	54.0357	40.9796	101.258	30.5478	9.99017	98.1168	52.8688	30.1955	116.946	40.6742	48.1086	139.841	-0.883751	21.384	152.542	-7.53141	53.6777	173.461	13.2286	30.1235	
130	1.08333	172.066	49.336	45.2463	151.028	78.7737	25.5926	124.721	85.536	10.9827	100.219	75.2389	9.03696	154.057	35.1627	-28.9797	150.501	42.8061	-53.7313	137.596	44.3956	-75.9365	120.091	43.8076	-22.0068	109.37	71.4762	-8.81302	124.129	66.0664	24.3662	108.274	39.0329	-4.5102	100.931	62.7311	13.8062	121.911	55.2026	40.6727	100.955	31.868	8.73538	95.0634	50.856	25.3653	117.486	43.0445	48.1732	142.31	-1.4258	20.6098	148.296	-10.4507	53.5905	171.012	13.0631	30.603	
131	1.09167	169.828	49.8342	43.5494	151.495	77.2664	30.4829	122.435	87.3042	11.8379	99.0673	75.379	9.0479	157.49	37.8742	-26.7538	150.633	42.3365	-52.1483	141.695	49.759	-75.8394	124.162	40.2888	-19.9771	108.517	70.8974	-9.97285	120.588	63.7928	25.9684	109.235	36.1632	-3.761	99.2482	61.8878	11.7523	119.105	54.3487	40.034	99.2033	28.6778	8.34215	96.8699	51.4167	25.7141	113.785	44.0302	47.9416	142.581	-1.04586	23.9747	150.036	-10.6729	49.4685	170.7	12.81	29.1839	
132	1.1	173.045	53.2029	48.4093	150.275	78.7499	30.5482	121.607	86.5034	11.0364	99.3163	71.3791	10.4343	153.027	35.9743	-24.8422	147.313	42.169	-51.1255	140.687	52.3284	-79.2527	127.307	41.3384	-22.1219	106.923	70.1009	-12.551	117.343	67.5896	22.758	108.847	36.864	-4.8143	98.1018	61.2097	7.87133	118.374	58.7426	37.2287	99.4758	25.2611	9.72547	96.827	52.0392	24.3809	114.46	44.8713	43.1959	141.665	-4.10602	24.7623	148.921	-10.9593	55.352	174.251	12.3147	34.1995	
133	1.10833	173.158	53.7774	48.4318	146.718	74.8433	28.1613	123.211	82.5121	14.5166	99.1557	71.2509	10.3213	157.479	38.479	-27.9598	150.045	45.6746	-52.855	137.503	51.0114	-77.3286	123.162	39.2322	-22.4348	110.158	67.866	-20.6677	114.809	69.9415	19.5908	108.725	33.9158	-5.21286	95.0813	58.4399	6.8063	111.047	58.3175	36.7413	96.306	26.925	9.04498	93.7754	51.6631	25.2255	112.559	47.7772	41.8954	141.311	-1.21453	24.9679	152.919	-7.94876	51.1338	174.126	15.1144	33.1898	
134	1.11667	170.841	50.7259	49.2774	148.514	74.8195	31.8692	122.802	87.8435	11.518	97.6644	73.2028	6.34063	157.077	36.3185	-25.4638	154.986	46.0758	-50.8292	142.771	54.4223	-76.6784	130.07	36.9443	-26.1862	109.607	64.3467	-27.3365	111.999	73.5497	13.9533	112.469	34.9865	-8.12258	97.503	59.6102	1.89332	116.367	63.2364	33.9855	101.429	25.0013	8.7976	97.2142	53.0561	20.6416	113.542	50.7857	42.1163	145.317	-1.93523	27.2047	152.53	-7.47116	57.8409	172.806	11.842	36.4222	
135	1.125	172.104	53.0059	47.4389	149.535	78.3413	29.9699	123.32	86.5468	10.1427	100.362	72.6113	5.33509	162.487	38.4817	-24.0186	153.911	43.4189	-50.3239	144.572	51.5432	-73.9112	130.85	31.4403	-28.2824	112.256	55.8688	-38.2017	102.744	80.4178	-11.4784	112.214	36.1787	-9.58823	99.159	61.031	2.85116	110.49	64.1372	31.1424	102.669	26.7516	9.04835	95.9125	53.1892	21.9578	112.867	52.0595	45.2015	143.036	-0.505569	25.3126	154.448	-8.67336	57.3943	172.935	15.0113	33.7189	
136	1.13333	172.251	54.1919	50.233	147.539	74.3036	29.5638	123.297	81.7482	12.1355	100.341	71.2635	4.18565	160.56	35.2539	-23.0395	160.86	45.3229	-50.1772	147.972	53.0141	-76.0176	134.958	26.4425	-28.2039	120.677	45.1331	-47.7002	98.1341	74.311	-39.4626	113.273	31.0309	-7.8063	98.752	56.7917	-0.532354	110.386	65.0357	31.7575	103.464	26.2014	7.63019	96.6014	51.7178	21.6776	114.807	53.8849	43.907	144.702	-2.128	25.1524	151.393	-8.11386	59.3749	174.33	13.5088	34.6003	
137	1.14167	171.67	55.9166	49.4873	145.892	75.9019	28.0217	120.859	83.4357	8.3118	99.5713	70.7026	5.98331	162.973	36.4576	-27.5328	161.212	45.8957	-51.2012	154.664	53.3899	-75.199	138.018	23.9491	-28.7291	123.207	40.1568	-54.9561	102.329	63.4111	-63.313	112.968	31.6802	-10.381	99.6712	59.4343	0.397974	112.621	65.3953	30.964	103.921	28.3987	7.06166	97.4648	50.7793	20.3156	112.982	49.9835	47.9649	144.264	-4.81425	27.6391	157.374	-7.02143	55.7246	177.074	16.7022	34.2163	
138	1.15	171.531	56.282	48.2325	146.532	77.8541	28.8466	119.705	83.7552	9.73952	94.8101	71.8391	3.04255	162.867	36.0293	-27.7089	162.186	46.0038	-53.8113	154.495	51.6718	-75.3169	139.61	22.1817	-30.6072	125.669	34.5775	-55.7675	107.23	46.3522	-72.3457	116.171	29.2488	-8.09259	97.4616	55.8035	0.880684	111.657	65.3425	29.6994	104.439	26.6799	7.31043	99.0008	50.0304	20.4723	114.665	51.1865	47.8713	148.279	-3.24624	24.6408	155.005	-8.88742	55.9316	176.544	15.9948	37.8552	
139	1.15833	169.948	53.2715	49.3997	145.315	73.5973	28.1885	119.556	82.8853	10.4903	98.4083	70.0322	6.06448	167.107	38.3843	-27.2266	163.233	47.1439	-53.81	157.477	52.9114	-73.8425	141.809	21.3267	-29.6768	127.833	30.3964	-55.5466	111.592	39.3448	-76.548	118.726	30.2794	-8.48085	99.3363	53.8078	-2.27249	111.02	63.3697	31.0054	102.647	25.7674	9.08644	98.8598	48.5993	19.5335	116.088	50.7477	47.363	148.751	-2.14415	25.7007	156.81	-8.80745	57.3005	176.506	14.4798	37.429	
140	1.16667	170.284	52.6453	46.608	146.835	78.1333	28.569	121.511	82.612	13.3665	97.9839	69.8922	4.51939	166.53	37.0738	-24.2331	160.488	44.1671	-53.9453	158.509	53.2578	-76.3985	143.014	20.4962	-26.7166	130.815	29.2142	-54.9396	114.14	35.283	-77.9268	114.201	27.8423	-9.12138	100.783	55.5525	-2.79968	109.792	62.3538	31.6827	105.422	22.0846	10.2847	99.1031	47.9606	18.9453	119.78	50.7157	47.0726	144.996	-4.47029	30.7356	155.03	-7.25253	56.8238	179.093	16.0238	36.7761	
141	1.175	173.128	55.2983	49.3521	144.749	74.2624	27.2003	119.848	82.2638	9.04842	98.0025	68.8123	5.63057	167.458	37.2985	-28.2555	160.55	42.204	-51.7145	154.834	50.5779	-75.062	140.449	18.2649	-26.1594	132.642	28.6677	-53.6602	117.198	35.6642	-77.615	117.819	30.6685	-10.4888	100.002	54.2014	-0.786792	109.571	64.554	26.4272	103.128	20.7325	10.9195	100.161	48.7152	22.0523	114.944	49.0626	46.1129	149.222	-3.17798	27.1416	155.288	-10.2168	60.0229	175.662	12.582	37.4605	
